<mxfile host="app.diagrams.net" agent="Mozilla/5.0 (Macintosh; Intel Mac OS X 10_15_7) AppleWebKit/537.36 (KHTML, like Gecko) Chrome/134.0.0.0 Safari/537.36" version="26.2.2">
  <diagram name="Page-1" id="w1zYY8zvFQFwmiPEFwTS">
    <mxGraphModel dx="1236" dy="790" grid="1" gridSize="10" guides="1" tooltips="1" connect="1" arrows="1" fold="1" page="1" pageScale="1" pageWidth="827" pageHeight="1169" math="0" shadow="0">
      <root>
        <mxCell id="0" />
        <mxCell id="1" parent="0" />
        <mxCell id="7NAy2N6UHNGJhJtu031U-1" value="" style="rounded=0;whiteSpace=wrap;html=1;" vertex="1" parent="1">
          <mxGeometry x="40" y="280" width="160" height="90" as="geometry" />
        </mxCell>
        <mxCell id="7NAy2N6UHNGJhJtu031U-2" value="&lt;font style=&quot;font-size: 14px;&quot;&gt;Process Login/&lt;/font&gt;&lt;div&gt;&lt;font style=&quot;font-size: 14px;&quot;&gt;Register&lt;/font&gt;&lt;/div&gt;" style="ellipse;whiteSpace=wrap;html=1;aspect=fixed;" vertex="1" parent="1">
          <mxGeometry x="320" y="260" width="120" height="120" as="geometry" />
        </mxCell>
        <mxCell id="7NAy2N6UHNGJhJtu031U-4" value="&lt;font style=&quot;font-size: 14px;&quot;&gt;Generate JWT&amp;nbsp;&lt;/font&gt;&lt;div&gt;&lt;font style=&quot;font-size: 14px;&quot;&gt;Token&lt;/font&gt;&lt;/div&gt;" style="ellipse;whiteSpace=wrap;html=1;aspect=fixed;" vertex="1" parent="1">
          <mxGeometry x="320" y="420" width="120" height="120" as="geometry" />
        </mxCell>
        <mxCell id="7NAy2N6UHNGJhJtu031U-5" value="&lt;font style=&quot;font-size: 14px;&quot;&gt;Validate Input&lt;/font&gt;" style="ellipse;whiteSpace=wrap;html=1;aspect=fixed;" vertex="1" parent="1">
          <mxGeometry x="320" y="100" width="120" height="120" as="geometry" />
        </mxCell>
        <mxCell id="7NAy2N6UHNGJhJtu031U-6" value="&lt;font style=&quot;font-size: 14px;&quot;&gt;Set Cookies &amp;amp;&lt;/font&gt;&lt;div&gt;&lt;font style=&quot;font-size: 14px;&quot;&gt;&lt;br&gt;&lt;/font&gt;&lt;/div&gt;" style="ellipse;whiteSpace=wrap;html=1;aspect=fixed;" vertex="1" parent="1">
          <mxGeometry x="320" y="580" width="120" height="120" as="geometry" />
        </mxCell>
        <mxCell id="7NAy2N6UHNGJhJtu031U-7" value="" style="rounded=0;whiteSpace=wrap;html=1;" vertex="1" parent="1">
          <mxGeometry x="560" y="280" width="160" height="90" as="geometry" />
        </mxCell>
        <mxCell id="7NAy2N6UHNGJhJtu031U-8" value="" style="rounded=0;whiteSpace=wrap;html=1;" vertex="1" parent="1">
          <mxGeometry x="560" y="430" width="160" height="90" as="geometry" />
        </mxCell>
      </root>
    </mxGraphModel>
  </diagram>
</mxfile>
